<?xml version="1.0" encoding="UTF-8"?><svg id="ILLUSTRATIONS" xmlns="http://www.w3.org/2000/svg" viewBox="0 0 1000 1000"><path d="M578.3584,438.433h0c0-34.2863,27.7945-62.0808,62.0807-62.0808h77.2783c34.5698,0,62.5942-28.0244,62.5942-62.5942h0c0-34.57-28.0244-62.5944-62.5942-62.5944h-324.5396c-34.5698,0-62.5942,28.0244-62.5942,62.5942h0c0,34.57-28.0244,62.5944-62.5942,62.5944H121.0096c-34.2862,0-62.0807,27.7945-62.0807,62.0807h0c0,34.2863,27.7945,62.0808,62.0807,62.0808h11.5573c34.0026,0,61.5671,27.5645,61.5671,61.5671h0c0,34.0027-27.5645,61.5672-61.5671,61.5672h-44.9728c-34.5698,0-62.5941,28.0243-62.5941,62.5941h0c0,34.5699,28.0243,62.5942,62.5941,62.5942h824.8118c34.5698,0,62.5941-28.0243,62.5941-62.5941h0c0-34.5699-28.0243-62.5942-62.5941-62.5942h-79.5903c-34.0026,0-61.5671-27.5645-61.5671-61.5671h0c0-34.0027-27.5645-61.5672-61.5671-61.5672h-69.2424c-34.2862,0-62.0807-27.7945-62.0807-62.0807Z" style="fill:#efeffc; stroke-width:0px;"/><circle cx="238.0787" cy="308.9682" r="45.5824" style="fill:#efeffc; stroke-width:0px;"/><circle cx="655.3983" cy="435.7323" r="35.0757" style="fill:#efeffc; stroke-width:0px;"/><rect x="369.3646" y="345.8041" width="90.8787" height="37.5361" rx="5.3942" ry="5.3942" style="fill:#dadafc; stroke-width:0px;"/><rect x="423.7459" y="422.9359" width="90.8787" height="37.5361" rx="5.3942" ry="5.3942" style="fill:#dadafc; stroke-width:0px;"/><rect x="500" y="307.2239" width="90.8787" height="37.5361" rx="5.3942" ry="5.3942" style="fill:#dadafc; stroke-width:0px;"/><path d="M138.6722,722.8729c-.067,0-.1365-.0052-.2035-.0155-.7214-.1108-1.2134-.7858-1.1027-1.5046,1.7287-11.185,11.6449-19.2759,20.0951-21.2107.7085-.1739,1.417.2834,1.5793.9906.1623.7111-.2808,1.4183-.9919,1.5806-7.6052,1.7416-16.5244,9.0067-18.0753,19.0414-.1005.6518-.6621,1.1181-1.301,1.1181Z" style="fill:#7e1dff; stroke-width:0px;"/><path d="M619.0028,584.2087c-.152,0-.304-.0258-.4534-.0799l-39.3247-14.4093c-.6853-.2499-1.0357-1.0073-.7858-1.6913.2525-.6853,1.0151-1.037,1.6926-.7845l39.3247,14.408c.6853.2499,1.0357,1.0073.7858,1.6913-.1958.5346-.7008.8656-1.2392.8656Z" style="fill:#7e1dff; stroke-width:0px;"/><path d="M563.4501,563.8546c-.152,0-.304-.0258-.4534-.0799l-12.8686-4.7146c-.6853-.2512-1.0357-1.0086-.7858-1.6926.2525-.684,1.0176-1.0318,1.6926-.7858l12.8686,4.7146c.6853.2512,1.0357,1.0086.7858,1.6926-.1958.5346-.7008.8656-1.2392.8656Z" style="fill:#7e1dff; stroke-width:0px;"/><path d="M177.3564,705.2647l77.7968-204.895c5.6034-14.7578,21.8507-22.468,36.8264-17.4761h0c16.1644,5.3881,24.3914,23.3331,17.9242,39.0968l-77.9127,189.9122s6.1273,9.1909,1.0212,23.4878h-83.2286s-7.1485-25.0197,27.5727-30.1257Z" style="fill:#d08e9c; stroke-width:0px;"/><path d="M291.9798,482.8937h0c-14.976-4.9922-31.2235,2.718-36.8269,17.476l-15.7141,41.387,54.3046,19.6247,16.1598-39.391c6.4678-15.7637-1.7596-33.7086-17.9233-39.0967Z" style="fill:#5514ad; stroke-width:0px;"/><path d="M415.5533,506.2514s28.1897-11.1406,53.1652,1.2048c24.0357,11.8809,26.5365,33.0523,26.5365,33.0523l12.3596,4.467c3.4047,1.2305,5.2442,4.9945,4.1609,8.5141l-28.0338,91.0829c-1.006,3.2684-4.5956,4.8881-7.6379,3.4464l-93.435-43.9221,32.8845-97.8454Z" style="fill:#232636; stroke-width:0px;"/><polygon points="509.6737 560.3185 780.3116 659.6091 768.468 706.743 487.1811 631.9011 509.6737 560.3185" style="fill:#c48794; stroke-width:0px;"/><polygon points="700.9808 689.1179 768.4681 706.7427 780.3121 659.609 711.3619 634.5393 700.9808 689.1179" style="fill:#c7c7c7; stroke-width:0px;"/><path d="M768.468,706.743c1.3753-5.4728,1.9159-18.3273,1.3934-26.3343-.5225-8.0071,10.4507-20.7996,10.4507-20.7996,0,0,22.9902,2.6503,23.5127,7.9883.5225,5.338,15.6754,67.7931,15.6754,67.7931h-15.8654c-3.5688,0-7.0019-1.3972-9.593-3.9042l-25.5739-24.7433Z" style="fill:#5514ad; stroke-width:0px;"/><path d="M813.7583,735.3905h5.7426s-15.1538-62.4553-15.6768-67.7934c-.1906-1.9541-3.4033-3.5443-7.3863-4.78l17.3205,72.5734Z" style="fill:#232636; stroke-width:0px;"/><path d="M414.8038,516.2095s27.5471-10.6565,51.9534,1.1525c23.4878,11.3646,30.6363,34.1394,30.6363,34.1394l12.0779,4.2728c3.3271,1.177,5.1247,4.7774,4.0661,8.1441l-27.3948,87.1245c-.983,3.1264-4.4909,4.6757-7.4638,3.2966l-96.01-44.5367,32.135-93.5931Z" style="fill:#34374e; stroke-width:0px;"/><polygon points="394.4357 615.2615 414.8039 516.2095 382.6685 609.8026 394.4357 615.2615" style="fill:#232636; stroke-width:0px;"/><polygon points="511.4835 570.4505 771.2481 662.9025 759.6744 707.9879 489.5036 638.9222 511.4835 570.4505" style="fill:#e5a1a7; stroke-width:0px;"/><polygon points="693.7254 691.1289 759.6745 707.9877 771.2485 662.9024 703.8699 638.9222 693.7254 691.1289" style="fill:#ededed; stroke-width:0px;"/><path d="M759.6744,707.9879c1.3439-5.2349,1.8722-17.5308,1.3616-25.1899s10.2125-19.8957,10.2125-19.8957c0,0,22.4662,2.5351,22.9768,7.6411.5106,5.1061,15.3182,64.8469,15.3182,64.8469h-15.5037c-3.4874,0-6.8423-1.3365-9.3744-3.7345l-24.991-23.6679Z" style="fill:#7e1dff; stroke-width:0px;"/><path d="M802.1869,735.3905h7.3566s-14.8073-59.7409-15.3187-64.8468c-.1945-1.9451-3.5785-3.5147-7.6903-4.7156l15.6523,69.5624Z" style="fill:#34374e; stroke-width:0px;"/><rect x="629.9487" y="593.7354" width="13.7863" height="79.5906" rx="6.8932" ry="6.8932" transform="translate(-160.0148 1048.1972) rotate(-72.3421)" style="fill:#f0b4b9; stroke-width:0px;"/><polygon points="511.4835 570.4505 518.6502 573.0011 508.4307 643.7606 489.5036 638.9222 511.4835 570.4505" style="fill:#d08e9c; stroke-width:0px;"/><path d="M270.3823,550.9177l105.1879,61.7586c2.9958,1.7589,6.8516.3314,7.9797-2.9543l34.9886-101.9042c.9658-2.8129-.4815-5.8837-3.2658-6.9291l-86.055-32.3108c-21.2569-7.9813-45.2268-.7864-58.5745,17.582l-10.7022,14.7278c-11.9806,16.487-7.1336,39.7113,10.4413,50.03Z" style="fill:#7e1dff; stroke-width:0px;"/><path d="M327.9752,584.732c-.8918-.5236,2.6084-72.9348,2.6084-72.9348l-23.0332,60.9429,20.4249,11.992Z" style="fill:#5514ad; stroke-width:0px;"/><path d="M269.7483,497.8184l-1.3131,2.3868c-10.621,19.306-34.8817,26.3466-54.1878,15.7256l-43.0099-23.6615,38.1467-78.7227,42.7298,23.5074c21.6492,11.9101,29.5442,39.1152,17.6342,60.7643Z" style="fill:#e5a1a7; stroke-width:0px;"/><circle cx="184.2964" cy="484.4957" r="22.0253" style="fill:#34374e; stroke-width:0px;"/><circle cx="167.6238" cy="460.2168" r="24.1591" style="fill:#34374e; stroke-width:0px;"/><circle cx="190.4758" cy="422.9359" r="30.8418" style="fill:#34374e; stroke-width:0px;"/><circle cx="203.1107" cy="461.4176" r="15.0995" style="fill:#34374e; stroke-width:0px;"/><path d="M210.5351,403.3653c-3.6051,16.7862-11.9138,30.5361-9.5736,47.5447,5.5384,5.6601,17.188,17.0773,32.0181,8.5792l8.3725.9649c1.9659,5.4198,8.0462,14.3634,13.4157,16.4637,5.3698,2.1,11.8267,1.4584,16.4433-1.9955,2.2152-1.6571,3.956-3.8683,5.4751-6.1803,5.8839-8.9535,8.7396-20.3061,5.8176-30.6136-2.9222-10.3076-12.3751-18.9545-23.0868-19.1647,2.8996-31.0953-45.6297-30.7413-48.8819-15.5984Z" style="fill:#34374e; stroke-width:0px;"/><circle cx="238.962" cy="460.1766" r="11.3061" style="fill:#e5a1a7; stroke-width:0px;"/><circle cx="238.962" cy="460.1766" r="5.2674" style="fill:#d08e9c; stroke-width:0px;"/><ellipse cx="210.0311" cy="505.4222" rx="2.845" ry="3.3915" transform="translate(-334.0394 445.8238) rotate(-61.183)" style="fill:#34374e; stroke-width:0px;"/><ellipse cx="215.928" cy="493.57" rx="2.845" ry="3.3915" transform="translate(-320.6005 444.8512) rotate(-61.183)" style="fill:#34374e; stroke-width:0px;"/><ellipse cx="173.7645" cy="415.1319" rx="13.4053" ry="8.1864" transform="translate(-276.0021 399.6875) rotate(-65.3203)" style="fill:#565d7a; stroke-width:0px;"/><circle cx="238.4863" cy="500.7819" r="5.7443" style="fill:#84344f; stroke-width:0px;"/><path d="M241.5748,495.9517c-2.061.9764-3.496,3.0587-3.496,5.4901,0,1.9255.912,3.6216,2.3058,4.7378,2.2349-.7871,3.8464-2.8945,3.8464-5.398,0-2.0327-1.0627-3.8091-2.6562-4.8299Z" style="fill:#cb667f; stroke-width:0px;"/><path d="M195.8233,705.2647l77.7968-204.895c5.6034-14.7578,21.8507-22.468,36.8264-17.4761h0c16.1644,5.3881,24.3914,23.3331,17.9242,39.0968l-77.9127,189.9122s6.1273,9.1909,1.0212,23.4878h-83.2286s-7.1485-25.0197,27.5727-30.1257Z" style="fill:#e5a1a7; stroke-width:0px;"/><path d="M310.4468,482.8937h0c-14.976-4.9922-31.2235,2.718-36.8269,17.476l-15.7141,41.387,54.3046,19.6247,16.1598-39.391c6.4678-15.7637-1.7596-33.7086-17.9233-39.0967Z" style="fill:#af73ff; stroke-width:0px;"/><rect x="228.8482" y="581.6462" width="58.1017" height="17.572" rx="8.786" ry="8.786" transform="translate(-385.3184 627.7617) rotate(-69.7259)" style="fill:#f0b4b9; stroke-width:0px;"/><path d="M441.4303,735.3904h-14.2736v-55.5099h14.2736c15.3286,0,27.7549,12.4263,27.7549,27.7549h0c0,15.3287-12.4263,27.755-27.7549,27.755Z" style="fill:#5514ad; stroke-width:0px;"/><circle cx="427.1567" cy="707.6355" r="27.7549" style="fill:#7e1dff; stroke-width:0px;"/><rect x="354.9135" y="700.1052" width="73.3561" height="11.3839" rx="5.6919" ry="5.6919" style="fill:#34374e; stroke-width:0px;"/><path d="M369.1871,735.3904h-14.2736v-55.5099h14.2736c15.3286,0,27.7549,12.4263,27.7549,27.7549h0c0,15.3287-12.4263,27.755-27.7549,27.755Z" style="fill:#5514ad; stroke-width:0px;"/><circle cx="354.9135" cy="707.6355" r="27.7549" style="fill:#7e1dff; stroke-width:0px;"/><circle cx="354.9135" cy="707.6355" r="12.6218" style="fill:#34374e; stroke-width:0px;"/><rect x="849.9519" y="662.0096" width="48.9536" height="34.7882" style="fill:#5514ad; stroke-width:0px;"/><rect x="838.9921" y="691.6717" width="70.8732" height="43.7187" rx="5.6876" ry="5.6876" style="fill:#7e1dff; stroke-width:0px;"/><path d="M893.6537,623.6479h-38.4499c-5.927,0-10.7318,4.8048-10.7318,10.7318v30.0367c0,1.6294,1.3209,2.9503,2.9503,2.9503h54.0128c1.6294,0,2.9503-1.3209,2.9503-2.9503v-30.0367c0-5.927-4.8048-10.7318-10.7318-10.7318Z" style="fill:#7e1dff; stroke-width:0px;"/><rect x="851.2116" y="630.5437" width="8.1463" height="20.3659" rx="4.0732" ry="4.0732" style="fill:#af73ff; stroke-width:0px;"/><path d="M881.9349,614.7174h-15.0123c-1.4945,0-2.7059,1.2115-2.7059,2.7059v6.2245h20.4242v-6.2245c0-1.4945-1.2115-2.7059-2.7059-2.7059Z" style="fill:#5514ad; stroke-width:0px;"/><rect x="81.7003" y="735.3904" width="855.4945" height="13.4459" rx="6.723" ry="6.723" style="fill:#5514ad; stroke-width:0px;"/><path d="M595.8135,707.9879h-76.0829c-8.2952,0-15.0197,6.7246-15.0197,15.0197v12.3828h106.1224v-12.3828c0-8.2952-6.7246-15.0197-15.0197-15.0197Z" style="fill:#5514ad; stroke-width:0px;"/><path d="M578.2838,707.9879h-76.0829c-8.2952,0-15.0197,6.7246-15.0197,15.0197v12.3828h106.1224v-12.3828c0-8.2952-6.7246-15.0197-15.0197-15.0197Z" style="fill:#7e1dff; stroke-width:0px;"/></svg>